<svg width="1030" height="423" xmlns="http://www.w3.org/2000/svg" data-name="Capa 1">
 <defs>
  <filter filterUnits="userSpaceOnUse" id="drop-shadow-1">
   <feGaussianBlur stdDeviation="0" result="blur"/>
  </filter>
  <clipPath id="clippath">
   <path id="svg_1" fill="none" d="m176.68741,27.71899c-4.06,-3.65 -9.41,-5.61 -14.85,-5.19c-0.09,0 -0.17,0.01 -0.26,0.02c-8.61,0.71 -11.26,-12.39 0.17,-15.09c11.43,-2.7 24.75,3.49 28.13,12.73c2.95,8.08 -5.29,14.63 -13.19,7.53z" class="cls-9"/>
  </clipPath>
 </defs>
 <g>
  <title>Layer 1</title>
  <path id="svg_2" fill="#993143" d="m14.17,291.92s-6.8,-4.2 -8.52,1.39c-1.72,5.6 -1.72,13.77 0,14.42c1.72,0.65 11.62,0 11.62,0c0,0 3.48,-12.47 -3.1,-15.81z" class="cls-8"/>
  <g stroke="null" id="svg_3">
   <g stroke="null" id="svg_4" filter="url(#drop-shadow-1)" class="cls-3">
    <path stroke="null" id="svg_5" fill="#993143" d="m362.05,195.9l-48.96,117.56l19.94,0l0,-39.58l61.86,0l0,39.58l23.45,0l0,48.37l-23.45,0l0,39.87l-61.86,0l0,-39.87l-87.66,0l0,-43.98l52.77,-121.96l63.91,0l0,0.01z" class="cls-8"/>
    <path stroke="null" id="svg_6" fill="#993143" d="m592.76,298.8c0,67.43 -29.61,104.66 -82.97,104.66s-83.26,-37.23 -83.26,-104.66s29.32,-104.66 83.26,-104.66s82.97,37.23 82.97,104.66zm-102.02,0c0,43.1 4.4,58.93 19.06,58.93s18.76,-15.83 18.76,-58.93s-4.4,-58.93 -18.76,-58.93s-19.06,15.54 -19.06,58.93z" class="cls-8"/>
    <path stroke="null" id="svg_7" fill="#993143" d="m723.8,195.9l-48.96,117.56l19.94,0l0,-39.58l61.86,0l0,39.58l23.45,0l0,48.37l-23.45,0l0,39.87l-61.86,0l0,-39.87l-87.66,0l0,-43.98l52.77,-121.96l63.91,0l0,0.01z" class="cls-8"/>
   </g>
   <g stroke="null" id="svg_8">
    <path stroke="null" id="svg_9" fill="#8c7549" d="m180.14,291.27s-15.28,-10.76 -18.97,6.49c0,0 3.58,9.59 5.4,27.11c6.37,1.3 12.64,2.81 18.77,4.48c0,-16.22 -1.27,-31.05 -5.2,-38.08z" class="cls-5"/>
    <path stroke="null" id="svg_10" fill="#998454" d="m190.49,397.32l-9.36,-4.13s4.21,-34.24 4.21,-63.84c-6.13,-1.68 -12.4,-3.18 -18.77,-4.48c1.59,15.31 1.84,36.68 -2.81,63.03c0,0 -6.01,16.13 0.63,22.83c6.64,6.71 12.55,4.39 20.93,7.74c8.38,3.35 22.42,4.13 28.09,-5.42c5.67,-9.55 -5.91,-25.8 -22.92,-15.74l0,0.01z" class="cls-2"/>
   </g>
   <g stroke="null" id="svg_11">
    <path stroke="null" id="svg_12" fill="#8c7549" d="m87.49,280.39s-15.28,-11.3 -18.97,6.81c0,0 4.65,13.12 6.04,36.76c5.95,-1.35 12,-2.39 18.12,-3.11c0.02,-17.22 -1.24,-33.01 -5.2,-40.46l0.01,0z" class="cls-5"/>
    <path stroke="null" id="svg_13" fill="#998454" d="m97.84,391.74l-9.36,-4.33s4.17,-35.58 4.21,-66.55c-6.13,0.72 -12.18,1.75 -18.12,3.11c0.89,15.18 0.44,34.69 -3.46,57.89c0,0 -6,16.93 0.63,23.98c6.64,7.04 12.55,4.61 20.93,8.13c8.38,3.52 22.42,4.33 28.09,-5.69c5.67,-10.02 -5.91,-27.09 -22.92,-16.53l0,-0.01z" class="cls-2"/>
   </g>
   <path stroke="null" id="svg_14" fill="#9e8b64" d="m155.09,109.23c6.46,-11.62 9.04,-25.82 3.87,-38.73c-0.38,-0.84 -0.81,-1.61 -1.27,-2.33c-26.03,9.01 -64.62,33.05 -83.76,97.06c32.56,-8.39 62.18,-25.17 81.15,-55.99l0.01,-0.01z" class="cls-1"/>
   <path stroke="null" id="svg_15" fill="#998454" d="m194.46,52.65c0.02,1.56 0.34,2.94 0.34,2.94c0,0 -0.1,-1.12 -0.34,-2.94z" class="cls-2"/>
   <path stroke="null" id="svg_16" fill="#998454" d="m205.28,72.56s15.03,1.23 13.18,-5.16c-1.85,-6.39 -7.76,-4.64 -7.76,-4.64c0,0 15.52,-12.39 6.28,-17.8c-9.24,-5.42 -15.15,11.42 -15.15,11.42c0,0 0.74,-7.74 -4.07,-8.13c-2.78,-0.22 -3.33,2.27 -3.3,4.41c0.25,1.81 0.34,2.94 0.34,2.94c0,0 -0.32,-1.38 -0.34,-2.94c-1.07,-7.87 -4.99,-28.71 -16.1,-26.67c-13.68,2.52 6.47,32.12 6.47,32.12c0,0 -4.07,-3.29 -5.54,0.19c-1.48,3.48 4.81,4.45 4.81,4.45c0,0 -11,0.09 -26.39,5.42c0.46,0.72 0.88,1.49 1.27,2.33c5.16,12.91 2.58,27.11 -3.87,38.73c-18.97,30.83 -48.59,47.6 -81.15,55.99c-3.37,11.27 -6.14,23.75 -8.13,37.63c0,0 -9.68,79 -7.39,82.83c4.69,7.85 57.52,17.57 116.53,15.4c5.5,-0.2 10.33,-3.88 12.21,-9.29l28.17,-72.95c9.38,-24.28 14.65,-50.13 15.12,-76.31c0.51,-28.05 -4.23,-58.88 -25.17,-69.97l-0.02,0z" class="cls-2"/>
   <g stroke="null" id="svg_17">
    <path stroke="null" id="svg_18" fill="#998454" d="m105.77,169.15c-2.31,-4.59 -7.55,-8.47 -19.09,-6.78c-16.31,2.39 -29.57,24.75 -36.63,39.48c21.68,-6.67 41.66,-17.05 55.72,-32.7z" class="cls-2"/>
    <path stroke="null" id="svg_19" fill="#998454" d="m55.67,216.4c9.05,-15.84 27.04,-27.72 46.99,-27.8c1.62,-1.45 3.37,-3.94 4.61,-8.25c0,0 1.1,-6.04 -1.5,-11.2c-14.06,15.64 -34.04,26.02 -55.72,32.7c-3.56,7.42 -5.55,12.9 -5.55,12.9c0,0 -8.83,-1.03 -10.79,10.27c0,0 -0.98,5.65 2.45,7.7c0,0 -33.84,49.3 -26.48,68.81c0,0 -1.31,5.99 4.41,8.05c0,0 3.76,8.22 9.32,5.31c0,0 -4.58,11.3 1.31,13.52c5.89,2.23 12.42,1.37 14.71,-8.22c0.58,-2.43 1.77,-10.74 3.95,-22.1c-5.18,-27.42 -3.21,-56.17 12.29,-81.7l0,0.01z" class="cls-2"/>
    <path stroke="null" id="svg_20" fill="#8c7549" d="m55.67,216.4c-15.5,25.53 -17.47,54.28 -12.29,81.7c6.4,-33.33 21.41,-92.92 55.06,-107.48c0,0 1.98,-0.01 4.22,-2.02c-19.95,0.08 -37.94,11.96 -46.99,27.8z" class="cls-5"/>
   </g>
   <path stroke="null" id="svg_21" fill="#8c7549" d="m72.75,169.31s20.49,-15.93 33.02,-0.16c0,0 -8.36,-10.94 -33.02,0.16z" class="cls-5"/>
   <path stroke="null" id="svg_22" fill="#998454" d="m178.36,25.98s12.89,-5.41 16.28,28.67c0,0 -2.13,-7.21 3.13,-6.42c5.26,0.8 4.07,8.13 4.07,8.13c0,0 3.64,-15.64 14.04,-11.97c10.4,3.67 -1.85,15.93 -5.17,18.36c0,0 7.17,-1.26 7.9,5.42c0,0 -4.03,-6.55 -9.76,-3.64c0,0 12.97,-15.66 5.81,-17.11c-7.16,-1.44 -13.15,12.27 -13.15,12.27c0,0 -1.03,-9.41 -4.11,-8.07c-3.09,1.34 -2.57,7.83 -2.57,7.83c0,0 -6.01,-32.22 -16.45,-33.46l-0.02,-0.01z" class="cls-2"/>
   <path stroke="null" id="svg_23" fill="#993143" d="m52.41,301.4c-6.22,-7.32 -15.34,-6.67 -15.34,-6.67c-3.55,9.9 -2.91,18.18 -2.91,18.18c0,0 -35.18,65.85 -17.11,56.17c13.78,-7.38 29.37,-2.19 36,0.69c1.04,0.45 2.15,0.15 2.84,-0.59c-11.92,-21.25 -15.33,-46.63 -3.49,-67.78l0.01,0z" class="cls-8"/>
   <path stroke="null" id="svg_24" fill="#9b3b50" d="m58.06,319.69c-0.11,-8.88 -2.51,-14.6 -5.64,-18.29c-11.84,21.15 -8.43,46.52 3.49,67.78c0.38,-0.4 0.65,-0.94 0.69,-1.56c0.55,-7.95 1.71,-27.56 1.46,-47.93z" class="cls-6"/>
   <path stroke="null" id="svg_25" fill="#111" d="m167.47,141.46c-1.78,4.25 -1.96,8.24 -0.41,8.92c1.55,0.68 4.25,-2.21 6.03,-6.46c1.78,-4.25 1.96,-8.24 0.41,-8.92c-1.55,-0.68 -4.25,2.21 -6.03,6.46" class="cls-4"/>
   <path stroke="null" id="svg_26" fill="#111" d="m202.95,150.01c-1.45,4.37 -1.33,8.36 0.26,8.92c1.6,0.56 4.07,-2.53 5.53,-6.9c1.45,-4.37 1.33,-8.36 -0.27,-8.92c-1.6,-0.56 -4.07,2.53 -5.53,6.9" class="cls-4"/>
   <path stroke="null" id="svg_27" fill="#111" d="m195.04,124.19c-1.45,4.37 -1.34,8.37 0.26,8.93c1.6,0.56 4.07,-2.53 5.53,-6.9c1.45,-4.37 1.34,-8.37 -0.26,-8.93c-1.6,-0.56 -4.07,2.53 -5.53,6.9" class="cls-4"/>
   <path stroke="null" id="svg_28" fill="#111" d="m183.32,186.95c-4.06,-3.65 -9.41,-5.61 -14.85,-5.19c-0.09,0 -0.17,0.01 -0.26,0.02c-8.61,0.71 -11.26,-12.39 0.17,-15.09c11.43,-2.7 24.75,3.49 28.13,12.73c2.95,8.08 -5.29,14.63 -13.19,7.53z" class="cls-4"/>
   <g stroke="null" id="svg_29" clip-path="url(#clippath)" class="cls-7">
    <path stroke="null" id="svg_30" fill="#993143" d="m191.62,190.3c-1.53,3.93 -9.06,4.66 -16.81,1.64c-7.75,-3.03 -12.79,-8.66 -11.25,-12.59c1.53,-3.93 9.06,-4.66 16.81,-1.64c7.75,3.03 12.79,8.66 11.25,12.59z" class="cls-8"/>
   </g>
   <path stroke="null" id="svg_31" fill="#998454" d="m239.09,215.18c9,-37.67 -16.28,-53.21 -16.28,-53.21l-2.73,7.87l-12.11,34.95c-4.24,24.93 -19.24,11.87 -19.24,11.87c-1.23,-3.85 -2.7,0 -2.7,0l0,-25.03c0,-9.89 -2.45,-13.99 -7.11,-11.43c-4.66,2.57 -3.19,22.85 -3.19,22.85c-3.31,-5.01 -6.01,0.13 -6.01,0.13c0,0 -0.98,-2.18 -3.31,-1.93c-2.33,0.26 -2.45,2.82 -2.45,2.82c-0.74,-1.28 -3.92,-5.39 -6.87,0c-2.94,5.39 5.15,34.66 18.41,43.39c2.63,1.73 6.34,3.01 10.68,3.66c21.85,-4.91 41.46,-16.63 52.91,-35.95l0,0.01z" class="cls-2"/>
   <path stroke="null" id="svg_32" fill="#8c7549" d="m186.18,251.13c13.74,2.07 33.75,-2.2 45.38,-18.78c3.22,-4.59 5.81,-10.11 7.43,-16.71c0.04,-0.15 0.06,-0.3 0.1,-0.45c-11.45,19.32 -31.05,31.04 -52.91,35.95l0,-0.01z" class="cls-5"/>
   <path stroke="null" id="svg_33" fill="#8c7549" d="m211.09,221.56s-13.07,4.37 -25.07,-4.9c0,0 4.33,-37.35 -4.91,-37.19c0,0 -7.95,-1.77 -5.48,22.11c0,0 -3.72,-2.39 -5.92,1.6c0,0 -3.97,-4.58 -5.71,0.51c0,0 -5.64,-5.16 -7.52,1.3c0,0 -7.2,37.84 33.38,46.64c0,0 -33.65,-8.15 -32.36,-45.75c0,0 0.32,-2.26 2.74,-2.38c2.42,-0.12 3.79,2.7 3.79,2.7c0,0 0.81,-3.71 2.66,-3.27c1.86,0.44 3.15,3.03 3.15,3.03c0,0 0.65,-4.2 3.43,-3.51c2.78,0.69 2.86,3.91 2.86,3.91c0,0 -1.45,-26.87 4.68,-25.9c6.13,0.97 4.28,38.25 4.28,38.25c0,0 14.04,11.73 25.98,2.85l0.02,0z" class="cls-5"/>
   <path stroke="null" id="svg_34" fill="#8c7549" d="m228.32,169.15s-4.79,27.88 -16.09,52.41c0,0 15.72,-25.09 16.09,-52.41z" class="cls-5"/>
   <path stroke="null" id="svg_35" fill="#872a3e" d="m56.64,368.61c0,8.1 -10.02,14.67 -22.37,14.67s-22.37,-6.57 -22.37,-14.67s10.02,-14.67 22.37,-14.67s22.37,6.57 22.37,14.67z" class="cls-10"/>
   <path stroke="null" id="svg_36" fill="#f6c700" d="m30.28,369.17l0,30.36l6.94,-29.35c0.25,-1.06 -0.24,-2.17 -1.21,-2.68c-0.93,-0.48 -2.21,-0.91 -3.66,-0.72c-1.19,0.15 -2.07,1.19 -2.07,2.39z" class="cls-11"/>
   <path stroke="null" id="svg_37" fill="#f6c700" d="m36.41,395.06c0,3.12 -2.53,5.65 -5.65,5.65s-5.65,-2.53 -5.65,-5.65s2.53,-5.65 5.65,-5.65s5.65,2.53 5.65,5.65z" class="cls-11"/>
   <path stroke="null" id="svg_38" fill="#9e8b64" d="m811.71,129.97c-6.06,-4.53 -13.42,-8.16 -22.27,-9.67c-18.02,-3.06 -30.33,3.02 -37.91,9.4c20.05,1.88 40.17,2.24 60.19,0.27l-0.01,0z" class="cls-1"/>
   <path stroke="null" id="svg_39" fill="#998454" d="m811.71,129.97c-20.01,1.97 -40.14,1.62 -60.19,-0.27c-6.71,5.65 -9.72,11.53 -9.72,11.53c0,0 -16.24,11.21 -15.59,16.13c0.64,4.91 3.63,3.2 3.63,3.2c0,4.81 2.56,3.84 2.56,3.84c0,0 -3.74,18.9 1.39,19.12c5.13,0.21 8.92,-15.25 8.92,-15.25c0,0 -0.2,3.85 5.97,2.68c6.17,-1.16 5.51,-15.21 5.51,-15.21c6.41,-18.16 25.21,-15.91 25.21,-15.91c17.56,1.53 30.8,17.39 40.15,34.83c3.46,-9.99 5.67,-20.39 5.77,-30.75c-3.5,-4.8 -8,-9.76 -13.6,-13.96l-0.01,0.02z" class="cls-2"/>
   <path stroke="null" id="svg_40" fill="#8c7549" d="m835.57,163.03s-3.03,-9.18 -10.26,-19.09c-0.1,10.36 -2.31,20.75 -5.77,30.75c12.15,22.65 17.74,47.94 17.74,47.94c2.99,-36.74 -1.71,-59.6 -1.71,-59.6z" class="cls-5"/>
   <path stroke="null" id="svg_41" fill="#8c7549" d="m970.17,159.83s-7.26,18.67 1.71,41.31c0,0 2.91,0.37 6.89,2.34c2,-12.3 5.12,-24.39 9.21,-36.26c-5.13,-3.14 -11.02,-5.67 -17.81,-7.39z" class="cls-5"/>
   <path stroke="null" id="svg_42" fill="#9e8b64" d="m995.18,172.46c4.69,25.99 12.28,52.73 24.9,76.69c0.98,-24.3 -2.5,-57.56 -24.9,-76.69z" class="cls-1"/>
   <path stroke="null" id="svg_43" fill="#998454" d="m995.18,172.46c-2.21,-1.89 -4.6,-3.65 -7.2,-5.24c-4.09,11.87 -7.21,23.96 -9.21,36.26c10.87,5.38 29.69,22.71 18.74,77.12c0,0 -11.16,8.54 -11.16,15.27c0,6.73 3.69,8.49 3.69,8.49c0,0 -2.89,6.73 2.88,6.73s10.57,1.28 12.18,2.08c1.6,0.8 5.77,-1.12 8.01,0c2.24,1.12 7.53,1.12 9.45,-0.64c1.92,-1.76 0.64,-26.11 -6.09,-33.48c0,0 2.92,-12.7 3.61,-29.9c-12.62,-23.96 -20.2,-50.71 -24.9,-76.69z" class="cls-2"/>
   <g stroke="null" id="svg_44">
    <path stroke="null" id="svg_45" fill="#998454" d="m874.28,386.41s-2.73,-4.52 -5.36,-1.68c0,0 -19.25,-12.52 -28.4,8.31c-9.15,20.83 31.87,21.77 41.97,11.99c10.1,-9.78 13.25,-10.1 13.25,-10.1c0,0 4.1,-6.63 0,-9.47c-3.04,-2.1 -11.26,-33.09 -13.02,-66.2c-5.69,0.61 -11.33,1.42 -16.91,2.52l8.48,64.63l-0.01,0z" class="cls-2"/>
    <path stroke="null" id="svg_46" fill="#8c7549" d="m883.75,284.8s-18.62,-16.41 -23.67,-6.63l5.72,43.61c5.58,-1.09 11.23,-1.91 16.91,-2.52c-0.62,-11.61 -0.44,-23.49 1.03,-34.47l0.01,0.01z" class="cls-5"/>
   </g>
   <g stroke="null" id="svg_47">
    <path stroke="null" id="svg_48" fill="#998454" d="m945.79,376.87s2.74,-4.52 5.36,-1.68c0,0 19.25,-12.52 28.4,8.31c9.15,20.83 -31.87,21.77 -41.97,11.99c-10.1,-9.78 -13.26,-10.1 -13.26,-10.1c0,0 -4.1,-6.63 0,-9.47c3.04,-2.1 11.26,-33.09 13.02,-66.2c5.69,0.61 11.33,1.42 16.91,2.52l-8.48,64.62l0.02,0.01z" class="cls-2"/>
    <path stroke="null" id="svg_49" fill="#8c7549" d="m936.32,275.26s18.62,-16.41 23.67,-6.63l-5.72,43.61c-5.58,-1.09 -11.23,-1.91 -16.91,-2.52c0.62,-11.61 0.44,-23.49 -1.03,-34.47l-0.01,0.01z" class="cls-5"/>
   </g>
   <path stroke="null" id="svg_50" fill="#998454" d="m884.95,46.49c0.25,0.62 0.5,0.99 0.5,0.99c0,0 -0.17,-0.35 -0.5,-0.99z" class="cls-2"/>
   <path stroke="null" id="svg_51" fill="#9e8b64" d="m959.47,135.74c5.01,3.08 10.13,5.84 15.35,8.32c-4.27,-32.1 -14.03,-62.58 -33.98,-80.52c-3.75,-3.37 -7.88,-6.29 -12.38,-8.7c-9.77,27.35 6.27,66.06 31,80.9l0.01,0z" class="cls-1"/>
   <path stroke="null" id="svg_52" fill="#998454" d="m959.47,135.74c-24.73,-14.84 -40.77,-53.55 -31,-80.9c-3.54,-1.9 -7.31,-3.5 -11.36,-4.73c0,0 31.45,-30.08 13.15,-42.71c-18.3,-12.62 -29.66,36.92 -29.66,36.92c0,0 -5.68,-12.62 -12.31,-7.57c-4.95,3.77 -4.09,7.9 -3.34,9.74c0.33,0.63 0.5,0.99 0.5,0.99c0,0 -0.24,-0.36 -0.5,-0.99c-3.17,-6.19 -20.94,-39.1 -36.11,-29.94c-16.72,10.1 23.03,40.08 23.03,40.08c0,0 -9.99,7.23 -20.21,25.76c-16.43,29.79 -33.45,88.79 -10.6,194c26.41,5.74 54.34,5.51 82.27,-0.7c22.51,-5 40.09,-19.18 52.13,-37.56c2.26,-24.63 3.85,-60.25 -0.65,-94.07c-5.22,-2.48 -10.34,-5.24 -15.35,-8.32l0.01,0z" class="cls-2"/>
   <path stroke="null" id="svg_53" fill="#8c7549" d="m923.34,275.69c-27.93,6.21 -55.86,6.43 -82.27,0.7c0.76,3.48 1.56,7.02 2.4,10.6c0,0 18.3,3.79 66.58,0c48.28,-3.79 61.53,-17.36 61.53,-17.36c0,0 2.13,-12.47 3.88,-31.5c-12.04,18.38 -29.61,32.55 -52.13,37.56l0.01,0z" class="cls-5"/>
   <path stroke="null" id="svg_54" fill="#111" d="m898.57,107.5c0.16,3.95 1.46,7.13 2.91,7.09c1.46,-0.03 2.51,-3.26 2.35,-7.21c-0.15,-3.95 -1.46,-7.13 -2.92,-7.09c-1.45,0.04 -2.51,3.26 -2.35,7.21" class="cls-4"/>
   <path stroke="null" id="svg_55" fill="#111" d="m877.68,134.95c0.15,3.95 1.46,7.13 2.91,7.09c1.46,-0.03 2.51,-3.27 2.35,-7.21c-0.16,-3.95 -1.46,-7.13 -2.92,-7.09c-1.45,0.03 -2.51,3.26 -2.35,7.21" class="cls-4"/>
   <path stroke="null" id="svg_56" fill="#111" d="m923.15,127.74c-1.45,0.03 -2.51,3.26 -2.35,7.21c0.15,3.95 1.46,7.13 2.91,7.09c1.46,-0.03 2.51,-3.27 2.35,-7.21c-0.15,-3.95 -1.46,-7.13 -2.91,-7.09z" class="cls-4"/>
   <g stroke="null" id="svg_57">
    <path stroke="null" id="svg_58" fill="#993143" d="m883.75,162.73s16.86,-11.64 39.68,-2.49c0,0 -21.63,-13.3 -39.68,2.49z" class="cls-8"/>
    <path stroke="null" id="svg_59" fill="#993143" d="m880.32,159.75s5.24,0.46 4.87,7.3c0,0 -0.87,-4.71 -4.87,-7.3z" class="cls-8"/>
    <path stroke="null" id="svg_60" fill="#993143" d="m922.51,165.22s0.87,-4.71 4.87,-7.3c0,0 -5.24,0.46 -4.87,7.3z" class="cls-8"/>
    <path stroke="null" id="svg_61" fill="#993143" d="m895.99,165.22s7.39,-2.93 15.71,0c0,0 -7.95,-5.34 -15.71,0z" class="cls-8"/>
   </g>
   <path stroke="null" id="svg_62" fill="#998454" d="m848.84,16.56s16.17,-12.98 36.6,30.92c0,0 -16.32,-30.64 -36.6,-30.92z" class="cls-2"/>
   <path stroke="null" id="svg_63" fill="#998454" d="m933.75,27.38c4.26,-7.77 3.03,-24.42 -10.96,-21.89c-13.99,2.52 -22.2,38.83 -22.2,38.83c-5.7,-10.4 -9.68,-10.8 -13.96,-6.08c-4.29,4.72 -1.18,9.23 -1.18,9.23c-0.07,-5.93 4.36,-7.65 4.36,-7.65c8.62,-0.76 11.78,14.55 11.78,14.55c0,0 9.15,-42.13 21.48,-45.04c12.33,-2.91 10.69,18.04 10.69,18.04l-0.01,0.01z" class="cls-2"/>
  </g>
 </g>
</svg>